<?xml version="1.0" encoding="UTF-8" standalone="no"?><svg xmlns="http://www.w3.org/2000/svg" xmlns:xlink="http://www.w3.org/1999/xlink" contentStyleType="text/css" height="484px" preserveAspectRatio="none" style="width:1328px;height:484px;background:#FFFFFF;" version="1.1" viewBox="0 0 1328 484" width="1328px" zoomAndPan="magnify"><defs/><g><rect fill="#F1F1F1" height="345.0469" rx="5" ry="5" style="stroke:#F1F1F1;stroke-width:1.5;" width="497" x="10" y="10"/><text fill="#000000" font-family="sans-serif" font-size="14" font-weight="bold" lengthAdjust="spacing" textLength="15" x="15" y="24.9951">id</text><text fill="#000000" font-family="sans-serif" font-size="14" lengthAdjust="spacing" textLength="9" x="269" y="24.9951">1</text><line style="stroke:#000000;stroke-width:1.0;" x1="264" x2="264" y1="10" y2="30.2969"/><line style="stroke:#000000;stroke-width:1.0;" x1="10" x2="507" y1="30.2969" y2="30.2969"/><text fill="#000000" font-family="sans-serif" font-size="14" font-weight="bold" lengthAdjust="spacing" textLength="118" x="15" y="45.292">beneficiario_id</text><text fill="#000000" font-family="sans-serif" font-size="14" lengthAdjust="spacing" textLength="26" x="269" y="45.292">123</text><line style="stroke:#000000;stroke-width:1.0;" x1="264" x2="264" y1="30.2969" y2="50.5938"/><line style="stroke:#000000;stroke-width:1.0;" x1="10" x2="507" y1="50.5938" y2="50.5938"/><text fill="#000000" font-family="sans-serif" font-size="14" font-weight="bold" lengthAdjust="spacing" textLength="113" x="15" y="65.5889">associacao_id</text><text fill="#000000" font-family="sans-serif" font-size="14" lengthAdjust="spacing" textLength="26" x="269" y="65.5889">456</text><line style="stroke:#000000;stroke-width:1.0;" x1="264" x2="264" y1="50.5938" y2="70.8906"/><line style="stroke:#000000;stroke-width:1.0;" x1="10" x2="507" y1="70.8906" y2="70.8906"/><text fill="#000000" font-family="sans-serif" font-size="14" font-weight="bold" lengthAdjust="spacing" textLength="89" x="15" y="85.8857">cisterna_id</text><text fill="#000000" font-family="sans-serif" font-size="14" lengthAdjust="spacing" textLength="26" x="269" y="85.8857">789</text><line style="stroke:#000000;stroke-width:1.0;" x1="264" x2="264" y1="70.8906" y2="91.1875"/><line style="stroke:#000000;stroke-width:1.0;" x1="10" x2="507" y1="91.1875" y2="91.1875"/><text fill="#000000" font-family="sans-serif" font-size="14" font-weight="bold" lengthAdjust="spacing" textLength="103" x="15" y="106.1826">progresso_id</text><text fill="#000000" font-family="sans-serif" font-size="14" lengthAdjust="spacing" textLength="26" x="269" y="106.1826">463</text><line style="stroke:#000000;stroke-width:1.0;" x1="264" x2="264" y1="91.1875" y2="111.4844"/><line style="stroke:#000000;stroke-width:1.0;" x1="10" x2="507" y1="111.4844" y2="111.4844"/><text fill="#000000" font-family="sans-serif" font-size="14" font-weight="bold" lengthAdjust="spacing" textLength="89" x="15" y="126.4795">data_inicio</text><text fill="#000000" font-family="sans-serif" font-size="14" lengthAdjust="spacing" textLength="81" x="269" y="126.4795">2022-01-01</text><line style="stroke:#000000;stroke-width:1.0;" x1="264" x2="264" y1="111.4844" y2="131.7813"/><line style="stroke:#000000;stroke-width:1.0;" x1="10" x2="507" y1="131.7813" y2="131.7813"/><text fill="#000000" font-family="sans-serif" font-size="14" font-weight="bold" lengthAdjust="spacing" textLength="183" x="15" y="146.7764">data_prevista_termino</text><text fill="#000000" font-family="sans-serif" font-size="14" lengthAdjust="spacing" textLength="80" x="269" y="146.7764">2022-12-31</text><line style="stroke:#000000;stroke-width:1.0;" x1="264" x2="264" y1="131.7813" y2="152.0781"/><line style="stroke:#000000;stroke-width:1.0;" x1="10" x2="507" y1="152.0781" y2="152.0781"/><text fill="#000000" font-family="sans-serif" font-size="14" font-weight="bold" lengthAdjust="spacing" textLength="115" x="15" y="167.0732">valor_previsto</text><text fill="#000000" font-family="sans-serif" font-size="14" lengthAdjust="spacing" textLength="68" x="269" y="167.0732">10000.00</text><line style="stroke:#000000;stroke-width:1.0;" x1="264" x2="264" y1="152.0781" y2="172.375"/><line style="stroke:#000000;stroke-width:1.0;" x1="10" x2="507" y1="172.375" y2="172.375"/><text fill="#000000" font-family="sans-serif" font-size="14" font-weight="bold" lengthAdjust="spacing" textLength="73" x="15" y="187.3701">endereco</text><text fill="#000000" font-family="sans-serif" font-size="14" lengthAdjust="spacing" textLength="12" x="269" y="187.3701">   </text><line style="stroke:#000000;stroke-width:1.0;" x1="264" x2="264" y1="172.375" y2="192.6719"/><line style="stroke:#000000;stroke-width:1.0;" x1="10" x2="507" y1="192.6719" y2="192.6719"/><text fill="#000000" font-family="sans-serif" font-size="14" font-weight="bold" lengthAdjust="spacing" textLength="72" x="15" y="207.667">contrato</text><text fill="#000000" font-family="sans-serif" font-size="14" lengthAdjust="spacing" textLength="81" x="269" y="207.667">12345/2022</text><line style="stroke:#000000;stroke-width:1.0;" x1="264" x2="264" y1="192.6719" y2="212.9688"/><line style="stroke:#000000;stroke-width:1.0;" x1="10" x2="507" y1="212.9688" y2="212.9688"/><text fill="#000000" font-family="sans-serif" font-size="14" font-weight="bold" lengthAdjust="spacing" textLength="69" x="15" y="227.9639">empresa</text><text fill="#000000" font-family="sans-serif" font-size="14" lengthAdjust="spacing" textLength="77" x="269" y="227.9639">Empresa X</text><line style="stroke:#000000;stroke-width:1.0;" x1="264" x2="264" y1="212.9688" y2="233.2656"/><line style="stroke:#000000;stroke-width:1.0;" x1="10" x2="507" y1="233.2656" y2="233.2656"/><text fill="#000000" font-family="sans-serif" font-size="14" font-weight="bold" lengthAdjust="spacing" textLength="32" x="15" y="248.2607">lote</text><text fill="#000000" font-family="sans-serif" font-size="14" lengthAdjust="spacing" textLength="63" x="269" y="248.2607">Lote 123</text><line style="stroke:#000000;stroke-width:1.0;" x1="264" x2="264" y1="233.2656" y2="253.5625"/><line style="stroke:#000000;stroke-width:1.0;" x1="10" x2="507" y1="253.5625" y2="253.5625"/><text fill="#000000" font-family="sans-serif" font-size="14" font-weight="bold" lengthAdjust="spacing" textLength="69" x="15" y="268.5576">gerencia</text><text fill="#000000" font-family="sans-serif" font-size="14" lengthAdjust="spacing" textLength="233" x="269" y="268.5576">Gerencia de Água e Saneamento</text><line style="stroke:#000000;stroke-width:1.0;" x1="264" x2="264" y1="253.5625" y2="273.8594"/><line style="stroke:#000000;stroke-width:1.0;" x1="10" x2="507" y1="273.8594" y2="273.8594"/><text fill="#000000" font-family="sans-serif" font-size="14" font-weight="bold" lengthAdjust="spacing" textLength="120" x="15" y="288.8545">documentacao</text><text fill="#000000" font-family="sans-serif" font-size="14" lengthAdjust="spacing" textLength="12" x="269" y="288.8545">   </text><line style="stroke:#000000;stroke-width:1.0;" x1="264" x2="264" y1="273.8594" y2="294.1563"/><line style="stroke:#000000;stroke-width:1.0;" x1="10" x2="507" y1="294.1563" y2="294.1563"/><text fill="#000000" font-family="sans-serif" font-size="14" font-weight="bold" lengthAdjust="spacing" textLength="244" x="15" y="309.1514">encarregado_tecnico_empresa</text><text fill="#000000" font-family="sans-serif" font-size="14" lengthAdjust="spacing" textLength="88" x="269" y="309.1514">João da Silva</text><line style="stroke:#000000;stroke-width:1.0;" x1="264" x2="264" y1="294.1563" y2="314.4531"/><line style="stroke:#000000;stroke-width:1.0;" x1="10" x2="507" y1="314.4531" y2="314.4531"/><text fill="#000000" font-family="sans-serif" font-size="14" font-weight="bold" lengthAdjust="spacing" textLength="148" x="15" y="329.4482">tecnicos_cooperar</text><text fill="#000000" font-family="sans-serif" font-size="14" lengthAdjust="spacing" textLength="12" x="269" y="329.4482">   </text><line style="stroke:#000000;stroke-width:1.0;" x1="264" x2="264" y1="314.4531" y2="334.75"/><line style="stroke:#000000;stroke-width:1.0;" x1="10" x2="507" y1="334.75" y2="334.75"/><text fill="#000000" font-family="sans-serif" font-size="14" font-weight="bold" lengthAdjust="spacing" textLength="190" x="15" y="349.7451">artefatos_documentais</text><text fill="#000000" font-family="sans-serif" font-size="14" lengthAdjust="spacing" textLength="12" x="269" y="349.7451">   </text><line style="stroke:#000000;stroke-width:1.0;" x1="264" x2="264" y1="334.75" y2="355.0469"/><rect fill="none" height="345.0469" rx="5" ry="5" style="stroke:#000000;stroke-width:1.5;" width="497" x="10" y="10"/><rect fill="#F1F1F1" height="40.5938" rx="5" ry="5" style="stroke:#F1F1F1;stroke-width:1.5;" width="221" x="544" y="161"/><text fill="#000000" font-family="sans-serif" font-size="14" font-weight="bold" lengthAdjust="spacing" textLength="79" x="549" y="175.9951">municipio</text><text fill="#000000" font-family="sans-serif" font-size="14" lengthAdjust="spacing" textLength="82" x="657" y="175.9951">Município A</text><line style="stroke:#000000;stroke-width:1.0;" x1="652" x2="652" y1="161" y2="181.2969"/><line style="stroke:#000000;stroke-width:1.0;" x1="544" x2="765" y1="181.2969" y2="181.2969"/><text fill="#000000" font-family="sans-serif" font-size="14" font-weight="bold" lengthAdjust="spacing" textLength="98" x="549" y="196.292">comunidade</text><text fill="#000000" font-family="sans-serif" font-size="14" lengthAdjust="spacing" textLength="103" x="657" y="196.292">Comunidade B</text><line style="stroke:#000000;stroke-width:1.0;" x1="652" x2="652" y1="181.2969" y2="201.5938"/><rect fill="none" height="40.5938" rx="5" ry="5" style="stroke:#000000;stroke-width:1.5;" width="221" x="544" y="161"/><rect fill="#F1F1F1" height="40.5938" rx="5" ry="5" style="stroke:#F1F1F1;stroke-width:1.5;" width="104" x="602.5" y="245"/><text fill="#000000" font-family="sans-serif" font-size="14" font-weight="bold" lengthAdjust="spacing" textLength="72" x="607.5" y="259.9951">contrato</text><text fill="#000000" font-family="sans-serif" font-size="14" lengthAdjust="spacing" textLength="12" x="689.5" y="259.9951">   </text><line style="stroke:#000000;stroke-width:1.0;" x1="684.5" x2="684.5" y1="245" y2="265.2969"/><line style="stroke:#000000;stroke-width:1.0;" x1="602.5" x2="706.5" y1="265.2969" y2="265.2969"/><text fill="#000000" font-family="sans-serif" font-size="14" font-weight="bold" lengthAdjust="spacing" textLength="71" x="607.5" y="280.292">licitacao</text><text fill="#000000" font-family="sans-serif" font-size="14" lengthAdjust="spacing" textLength="12" x="689.5" y="280.292">   </text><line style="stroke:#000000;stroke-width:1.0;" x1="684.5" x2="684.5" y1="265.2969" y2="285.5938"/><rect fill="none" height="40.5938" rx="5" ry="5" style="stroke:#000000;stroke-width:1.5;" width="104" x="602.5" y="245"/><rect fill="#F1F1F1" height="81.1875" rx="5" ry="5" style="stroke:#F1F1F1;stroke-width:1.5;" width="234" x="942" y="151"/><text fill="#000000" font-family="sans-serif" font-size="14" font-weight="bold" lengthAdjust="spacing" textLength="61" x="947" y="165.9951">numero</text><text fill="#000000" font-family="sans-serif" font-size="14" lengthAdjust="spacing" textLength="81" x="1090" y="165.9951">12345/2022</text><line style="stroke:#000000;stroke-width:1.0;" x1="1085" x2="1085" y1="151" y2="171.2969"/><line style="stroke:#000000;stroke-width:1.0;" x1="942" x2="1176" y1="171.2969" y2="171.2969"/><text fill="#000000" font-family="sans-serif" font-size="14" font-weight="bold" lengthAdjust="spacing" textLength="133" x="947" y="186.292">data_assinatura</text><text fill="#000000" font-family="sans-serif" font-size="14" lengthAdjust="spacing" textLength="81" x="1090" y="186.292">2022-01-01</text><line style="stroke:#000000;stroke-width:1.0;" x1="1085" x2="1085" y1="171.2969" y2="191.5938"/><line style="stroke:#000000;stroke-width:1.0;" x1="942" x2="1176" y1="191.5938" y2="191.5938"/><text fill="#000000" font-family="sans-serif" font-size="14" font-weight="bold" lengthAdjust="spacing" textLength="128" x="947" y="206.5889">prazo_execucao</text><text fill="#000000" font-family="sans-serif" font-size="14" lengthAdjust="spacing" textLength="67" x="1090" y="206.5889">12 meses</text><line style="stroke:#000000;stroke-width:1.0;" x1="1085" x2="1085" y1="191.5938" y2="211.8906"/><line style="stroke:#000000;stroke-width:1.0;" x1="942" x2="1176" y1="211.8906" y2="211.8906"/><text fill="#000000" font-family="sans-serif" font-size="14" font-weight="bold" lengthAdjust="spacing" textLength="41" x="947" y="226.8857">valor</text><text fill="#000000" font-family="sans-serif" font-size="14" lengthAdjust="spacing" textLength="68" x="1090" y="226.8857">10000.00</text><line style="stroke:#000000;stroke-width:1.0;" x1="1085" x2="1085" y1="211.8906" y2="232.1875"/><rect fill="none" height="81.1875" rx="5" ry="5" style="stroke:#000000;stroke-width:1.5;" width="234" x="942" y="151"/><rect fill="#F1F1F1" height="60.8906" rx="5" ry="5" style="stroke:#F1F1F1;stroke-width:1.5;" width="261" x="928.5" y="250"/><text fill="#000000" font-family="sans-serif" font-size="14" font-weight="bold" lengthAdjust="spacing" textLength="61" x="933.5" y="264.9951">numero</text><text fill="#000000" font-family="sans-serif" font-size="14" lengthAdjust="spacing" textLength="82" x="1102.5" y="264.9951">54321/2021</text><line style="stroke:#000000;stroke-width:1.0;" x1="1097.5" x2="1097.5" y1="250" y2="270.2969"/><line style="stroke:#000000;stroke-width:1.0;" x1="928.5" x2="1189.5" y1="270.2969" y2="270.2969"/><text fill="#000000" font-family="sans-serif" font-size="14" font-weight="bold" lengthAdjust="spacing" textLength="116" x="933.5" y="285.292">data_abertura</text><text fill="#000000" font-family="sans-serif" font-size="14" lengthAdjust="spacing" textLength="81" x="1102.5" y="285.292">2021-12-31</text><line style="stroke:#000000;stroke-width:1.0;" x1="1097.5" x2="1097.5" y1="270.2969" y2="290.5938"/><line style="stroke:#000000;stroke-width:1.0;" x1="928.5" x2="1189.5" y1="290.5938" y2="290.5938"/><text fill="#000000" font-family="sans-serif" font-size="14" font-weight="bold" lengthAdjust="spacing" textLength="159" x="933.5" y="305.5889">empresa_vencedora</text><text fill="#000000" font-family="sans-serif" font-size="14" lengthAdjust="spacing" textLength="77" x="1102.5" y="305.5889">Empresa X</text><line style="stroke:#000000;stroke-width:1.0;" x1="1097.5" x2="1097.5" y1="290.5938" y2="310.8906"/><rect fill="none" height="60.8906" rx="5" ry="5" style="stroke:#000000;stroke-width:1.5;" width="261" x="928.5" y="250"/><rect fill="#F1F1F1" height="40.5938" rx="5" ry="5" style="stroke:#F1F1F1;stroke-width:1.5;" width="123" x="593" y="304"/><text fill="#000000" font-family="sans-serif" font-size="14" lengthAdjust="spacing" textLength="113" x="598" y="318.9951">Maria Rodrigues</text><line style="stroke:#000000;stroke-width:1.0;" x1="593" x2="716" y1="324.2969" y2="324.2969"/><text fill="#000000" font-family="sans-serif" font-size="14" lengthAdjust="spacing" textLength="75" x="598" y="339.292">José Souza</text><rect fill="none" height="40.5938" rx="5" ry="5" style="stroke:#000000;stroke-width:1.5;" width="123" x="593" y="304"/><rect fill="#F1F1F1" height="40.5938" rx="5" ry="5" style="stroke:#F1F1F1;stroke-width:1.5;" width="22" x="642.5" y="363"/><text fill="#000000" font-family="sans-serif" font-size="14" lengthAdjust="spacing" textLength="12" x="647.5" y="377.9951">   </text><line style="stroke:#000000;stroke-width:1.0;" x1="642.5" x2="664.5" y1="383.2969" y2="383.2969"/><text fill="#000000" font-family="sans-serif" font-size="14" lengthAdjust="spacing" textLength="12" x="647.5" y="398.292">   </text><rect fill="none" height="40.5938" rx="5" ry="5" style="stroke:#000000;stroke-width:1.5;" width="22" x="642.5" y="363"/><rect fill="#F1F1F1" height="60.8906" rx="5" ry="5" style="stroke:#F1F1F1;stroke-width:1.5;" width="514" x="802" y="333"/><text fill="#000000" font-family="sans-serif" font-size="14" font-weight="bold" lengthAdjust="spacing" textLength="44" x="807" y="347.9951">nome</text><text fill="#000000" font-family="sans-serif" font-size="14" lengthAdjust="spacing" textLength="128" x="861" y="347.9951">Plano de Trabalho</text><line style="stroke:#000000;stroke-width:1.0;" x1="856" x2="856" y1="333" y2="353.2969"/><line style="stroke:#000000;stroke-width:1.0;" x1="802" x2="1316" y1="353.2969" y2="353.2969"/><text fill="#000000" font-family="sans-serif" font-size="14" font-weight="bold" lengthAdjust="spacing" textLength="33" x="807" y="368.292">tipo</text><text fill="#000000" font-family="sans-serif" font-size="14" lengthAdjust="spacing" textLength="28" x="861" y="368.292">PDF</text><line style="stroke:#000000;stroke-width:1.0;" x1="856" x2="856" y1="353.2969" y2="373.5938"/><line style="stroke:#000000;stroke-width:1.0;" x1="802" x2="1316" y1="373.5938" y2="373.5938"/><text fill="#000000" font-family="sans-serif" font-size="14" font-weight="bold" lengthAdjust="spacing" textLength="22" x="807" y="388.5889">url</text><text fill="#000000" font-family="sans-serif" font-size="14" lengthAdjust="spacing" textLength="450" x="861" y="388.5889">https://example.com/obras/1/artefatos/plano-de-trabalho.pdf</text><line style="stroke:#000000;stroke-width:1.0;" x1="856" x2="856" y1="373.5938" y2="393.8906"/><rect fill="none" height="60.8906" rx="5" ry="5" style="stroke:#000000;stroke-width:1.5;" width="514" x="802" y="333"/><rect fill="#F1F1F1" height="60.8906" rx="5" ry="5" style="stroke:#F1F1F1;stroke-width:1.5;" width="451" x="833.5" y="412"/><text fill="#000000" font-family="sans-serif" font-size="14" font-weight="bold" lengthAdjust="spacing" textLength="44" x="838.5" y="426.9951">nome</text><text fill="#000000" font-family="sans-serif" font-size="14" lengthAdjust="spacing" textLength="93" x="892.5" y="426.9951">Foto da Obra</text><line style="stroke:#000000;stroke-width:1.0;" x1="887.5" x2="887.5" y1="412" y2="432.2969"/><line style="stroke:#000000;stroke-width:1.0;" x1="833.5" x2="1284.5" y1="432.2969" y2="432.2969"/><text fill="#000000" font-family="sans-serif" font-size="14" font-weight="bold" lengthAdjust="spacing" textLength="33" x="838.5" y="447.292">tipo</text><text fill="#000000" font-family="sans-serif" font-size="14" lengthAdjust="spacing" textLength="24" x="892.5" y="447.292">JPG</text><line style="stroke:#000000;stroke-width:1.0;" x1="887.5" x2="887.5" y1="432.2969" y2="452.5938"/><line style="stroke:#000000;stroke-width:1.0;" x1="833.5" x2="1284.5" y1="452.5938" y2="452.5938"/><text fill="#000000" font-family="sans-serif" font-size="14" font-weight="bold" lengthAdjust="spacing" textLength="22" x="838.5" y="467.5889">url</text><text fill="#000000" font-family="sans-serif" font-size="14" lengthAdjust="spacing" textLength="387" x="892.5" y="467.5889">https://example.com/obras/1/artefatos/foto-obra.jpg</text><line style="stroke:#000000;stroke-width:1.0;" x1="887.5" x2="887.5" y1="452.5938" y2="472.8906"/><rect fill="none" height="60.8906" rx="5" ry="5" style="stroke:#000000;stroke-width:1.5;" width="451" x="833.5" y="412"/><path d="M495,181.5 L508,181.5 C517.3003,181.5 526.9337,181.5 536.6139,181.5 " fill="none" style="stroke:#000000;stroke-width:1.0;stroke-dasharray:3.0,3.0;"/><path d="M536.6139,184.6071 L538.9443,181.5 L536.6139,178.3929 L544.3817,181.5 L536.6139,184.6071 " fill="#000000" style="stroke:#000000;stroke-width:1.0;"/><ellipse cx="495" cy="181.5" fill="#000000" rx="3" ry="3" style="stroke:#000000;stroke-width:1.0;"/><path d="M695,254.5 L708,254.5 C730.7615,254.5 843.3179,233.6531 934.8297,215.9433 " fill="none" style="stroke:#000000;stroke-width:1.0;stroke-dasharray:3.0,3.0;"/><path d="M935.4023,218.8978 L937.0456,215.5139 L934.2572,212.9888 L942.216,214.5119 L935.4023,218.8978 " fill="#000000" style="stroke:#000000;stroke-width:1.0;"/><ellipse cx="695" cy="254.5" fill="#000000" rx="3" ry="3" style="stroke:#000000;stroke-width:1.0;"/><path d="M695,275.5 L708,275.5 C778.1756,275.5 856.2464,276.5145 920.8615,277.6295 " fill="none" style="stroke:#000000;stroke-width:1.0;stroke-dasharray:3.0,3.0;"/><path d="M920.8069,280.7542 L923.205,277.6704 L920.9161,274.5048 L928.6733,277.7659 L920.8069,280.7542 " fill="#000000" style="stroke:#000000;stroke-width:1.0;"/><ellipse cx="695" cy="275.5" fill="#000000" rx="3" ry="3" style="stroke:#000000;stroke-width:1.0;"/><path d="M495,283.5 L508,283.5 C536.8233,283.5 568.6085,280.0016 595.1421,276.0894 " fill="none" style="stroke:#000000;stroke-width:1.0;stroke-dasharray:3.0,3.0;"/><path d="M595.6092,279.1679 L597.451,275.7391 L594.675,273.0109 L602.8383,274.9217 L595.6092,279.1679 " fill="#000000" style="stroke:#000000;stroke-width:1.0;"/><ellipse cx="495" cy="283.5" fill="#000000" rx="3" ry="3" style="stroke:#000000;stroke-width:1.0;"/><path d="M495,324.5 L508,324.5 C533.2735,324.5 561.0078,324.5 585.4521,324.5 " fill="none" style="stroke:#000000;stroke-width:1.0;stroke-dasharray:3.0,3.0;"/><path d="M585.4521,327.6254 L587.7962,324.5 L585.4521,321.3746 L593.2657,324.5 L585.4521,327.6254 " fill="#000000" style="stroke:#000000;stroke-width:1.0;"/><ellipse cx="495" cy="324.5" fill="#000000" rx="3" ry="3" style="stroke:#000000;stroke-width:1.0;"/><path d="M655,372.5 L668,372.5 C708.9422,372.5 752.2926,371.9994 794.638,371.2344 " fill="none" style="stroke:#000000;stroke-width:1.0;stroke-dasharray:3.0,3.0;"/><path d="M794.6942,374.2807 L796.9227,371.1922 L794.5817,368.188 L802.2538,371.0938 L794.6942,374.2807 " fill="#000000" style="stroke:#000000;stroke-width:1.0;"/><ellipse cx="655" cy="372.5" fill="#000000" rx="3" ry="3" style="stroke:#000000;stroke-width:1.0;"/><path d="M655,393.5 L668,393.5 C703.2285,393.5 773.4355,401.4503 844.7263,410.946 " fill="none" style="stroke:#000000;stroke-width:1.0;stroke-dasharray:3.0,3.0;"/><path d="M844.3088,414.0643 L847.065,411.2592 L845.1438,407.8278 L852.5219,411.9899 L844.3088,414.0643 " fill="#000000" style="stroke:#000000;stroke-width:1.0;"/><ellipse cx="655" cy="393.5" fill="#000000" rx="3" ry="3" style="stroke:#000000;stroke-width:1.0;"/><path d="M495,344.5 L508,344.5 C524.6058,344.5 527.9711,350.1611 544,354.5 C576.0895,363.1864 613.5375,372.9878 635.4235,378.6822 " fill="none" style="stroke:#000000;stroke-width:1.0;stroke-dasharray:3.0,3.0;"/><path d="M634.6625,381.6104 L637.6196,379.253 L636.1845,375.7541 L642.7439,380.5847 L634.6625,381.6104 " fill="#000000" style="stroke:#000000;stroke-width:1.0;"/><ellipse cx="495" cy="344.5" fill="#000000" rx="3" ry="3" style="stroke:#000000;stroke-width:1.0;"/><!--SRC=[bLFDRjf04BxxALO-9LB1c01DEQNvhH2eg4wYIbM41djmDhLthDqrJLFbq6VfgOS-1I_M6KC0jRtKmiBppSytyytkYVDW_OCZ4tmBGfs5GnM_2i8v6bpeL8FLD5kZtIF6mJbYD8KDskiF64srysWDhB7NnsyOgopb5Zby4pYGz0my1nakJ8o5tKwts-h4_0jVd9N59LU36HSijTc5nTtMKHEsX8BiIvpuumu_xKw7VMWoj9WAojEKjJ1LQww96AjVRActKYObSMUGeNZFjfOw3OFdnc-yXOOWvDbx_KZQa4micTo1E2xMd-gZu0NvfjQO_qKkmN9knx1WWbzjlXMJhBxdDIXK2HY44WtpY0AKrcA8lkiHzhfWox3N_gEZHZbUZJRWQmj_IrjPUA8PFc9Qhqjp0LMYGxTLT4_8Plw2fTjhP4VTxnrrOw7UBGtcQFU8uzsoDbhDbZmvPcJ_K2ruRhZO2TPY3XdntbDU53UxKtb4gn-aCb29BfOWPJT1RfOILMX1klyKJlYqWlf0cTLvBQD9gblzL0dLJn3UoVcr7XUifvjjjTPEakNq6ogR1KuBC2HRkhOmX-A-sOtNLJF-zFnIpDeMOjrxNxbX5E4Zb5M1RJvL4Sqjk2YEjbnH9GLR6RRyfc2xoXRDCTjZlIJV3FcUq_S9HzEh_oPSSAsMmEs7AXULx_WzuTlHNFH01lGtax5QedMQZ8hRSbxQSN-E7WO7D-QpeIz6SV5A5wYyBl4mEBYQZfMZsgQeChvxLizhpzc7mGYMh7jj96wen3gudXogvE85L1TcgIqP4JmOtKxMGUeT-QGYtmGFUgrJxLM2bfjIjvFWd6Uf2y-fAMNQv4DrSttPEWx6OFZkv4o49ZWZ9h1VsPVy1W00]--></g></svg>