<?xml version="1.0" encoding="UTF-8" standalone="no"?><svg xmlns="http://www.w3.org/2000/svg" xmlns:xlink="http://www.w3.org/1999/xlink" contentStyleType="text/css" height="464px" preserveAspectRatio="none" style="width:1328px;height:464px;background:#FFFFFF;" version="1.1" viewBox="0 0 1328 464" width="1328px" zoomAndPan="magnify"><defs/><g><rect fill="#F1F1F1" height="324.75" rx="5" ry="5" style="stroke:#F1F1F1;stroke-width:1.5;" width="497" x="10" y="10"/><text fill="#000000" font-family="sans-serif" font-size="14" font-weight="bold" lengthAdjust="spacing" textLength="15" x="15" y="24.9951">id</text><text fill="#000000" font-family="sans-serif" font-size="14" lengthAdjust="spacing" textLength="9" x="269" y="24.9951">1</text><line style="stroke:#000000;stroke-width:1.0;" x1="264" x2="264" y1="10" y2="30.2969"/><line style="stroke:#000000;stroke-width:1.0;" x1="10" x2="507" y1="30.2969" y2="30.2969"/><text fill="#000000" font-family="sans-serif" font-size="14" font-weight="bold" lengthAdjust="spacing" textLength="118" x="15" y="45.292">beneficiario_id</text><text fill="#000000" font-family="sans-serif" font-size="14" lengthAdjust="spacing" textLength="26" x="269" y="45.292">123</text><line style="stroke:#000000;stroke-width:1.0;" x1="264" x2="264" y1="30.2969" y2="50.5938"/><line style="stroke:#000000;stroke-width:1.0;" x1="10" x2="507" y1="50.5938" y2="50.5938"/><text fill="#000000" font-family="sans-serif" font-size="14" font-weight="bold" lengthAdjust="spacing" textLength="113" x="15" y="65.5889">associacao_id</text><text fill="#000000" font-family="sans-serif" font-size="14" lengthAdjust="spacing" textLength="26" x="269" y="65.5889">456</text><line style="stroke:#000000;stroke-width:1.0;" x1="264" x2="264" y1="50.5938" y2="70.8906"/><line style="stroke:#000000;stroke-width:1.0;" x1="10" x2="507" y1="70.8906" y2="70.8906"/><text fill="#000000" font-family="sans-serif" font-size="14" font-weight="bold" lengthAdjust="spacing" textLength="89" x="15" y="85.8857">cisterna_id</text><text fill="#000000" font-family="sans-serif" font-size="14" lengthAdjust="spacing" textLength="26" x="269" y="85.8857">789</text><line style="stroke:#000000;stroke-width:1.0;" x1="264" x2="264" y1="70.8906" y2="91.1875"/><line style="stroke:#000000;stroke-width:1.0;" x1="10" x2="507" y1="91.1875" y2="91.1875"/><text fill="#000000" font-family="sans-serif" font-size="14" font-weight="bold" lengthAdjust="spacing" textLength="89" x="15" y="106.1826">data_inicio</text><text fill="#000000" font-family="sans-serif" font-size="14" lengthAdjust="spacing" textLength="81" x="269" y="106.1826">2022-01-01</text><line style="stroke:#000000;stroke-width:1.0;" x1="264" x2="264" y1="91.1875" y2="111.4844"/><line style="stroke:#000000;stroke-width:1.0;" x1="10" x2="507" y1="111.4844" y2="111.4844"/><text fill="#000000" font-family="sans-serif" font-size="14" font-weight="bold" lengthAdjust="spacing" textLength="183" x="15" y="126.4795">data_prevista_termino</text><text fill="#000000" font-family="sans-serif" font-size="14" lengthAdjust="spacing" textLength="80" x="269" y="126.4795">2022-12-31</text><line style="stroke:#000000;stroke-width:1.0;" x1="264" x2="264" y1="111.4844" y2="131.7813"/><line style="stroke:#000000;stroke-width:1.0;" x1="10" x2="507" y1="131.7813" y2="131.7813"/><text fill="#000000" font-family="sans-serif" font-size="14" font-weight="bold" lengthAdjust="spacing" textLength="115" x="15" y="146.7764">valor_previsto</text><text fill="#000000" font-family="sans-serif" font-size="14" lengthAdjust="spacing" textLength="68" x="269" y="146.7764">10000.00</text><line style="stroke:#000000;stroke-width:1.0;" x1="264" x2="264" y1="131.7813" y2="152.0781"/><line style="stroke:#000000;stroke-width:1.0;" x1="10" x2="507" y1="152.0781" y2="152.0781"/><text fill="#000000" font-family="sans-serif" font-size="14" font-weight="bold" lengthAdjust="spacing" textLength="73" x="15" y="167.0732">endereco</text><text fill="#000000" font-family="sans-serif" font-size="14" lengthAdjust="spacing" textLength="12" x="269" y="167.0732">   </text><line style="stroke:#000000;stroke-width:1.0;" x1="264" x2="264" y1="152.0781" y2="172.375"/><line style="stroke:#000000;stroke-width:1.0;" x1="10" x2="507" y1="172.375" y2="172.375"/><text fill="#000000" font-family="sans-serif" font-size="14" font-weight="bold" lengthAdjust="spacing" textLength="72" x="15" y="187.3701">contrato</text><text fill="#000000" font-family="sans-serif" font-size="14" lengthAdjust="spacing" textLength="81" x="269" y="187.3701">12345/2022</text><line style="stroke:#000000;stroke-width:1.0;" x1="264" x2="264" y1="172.375" y2="192.6719"/><line style="stroke:#000000;stroke-width:1.0;" x1="10" x2="507" y1="192.6719" y2="192.6719"/><text fill="#000000" font-family="sans-serif" font-size="14" font-weight="bold" lengthAdjust="spacing" textLength="69" x="15" y="207.667">empresa</text><text fill="#000000" font-family="sans-serif" font-size="14" lengthAdjust="spacing" textLength="77" x="269" y="207.667">Empresa X</text><line style="stroke:#000000;stroke-width:1.0;" x1="264" x2="264" y1="192.6719" y2="212.9688"/><line style="stroke:#000000;stroke-width:1.0;" x1="10" x2="507" y1="212.9688" y2="212.9688"/><text fill="#000000" font-family="sans-serif" font-size="14" font-weight="bold" lengthAdjust="spacing" textLength="32" x="15" y="227.9639">lote</text><text fill="#000000" font-family="sans-serif" font-size="14" lengthAdjust="spacing" textLength="63" x="269" y="227.9639">Lote 123</text><line style="stroke:#000000;stroke-width:1.0;" x1="264" x2="264" y1="212.9688" y2="233.2656"/><line style="stroke:#000000;stroke-width:1.0;" x1="10" x2="507" y1="233.2656" y2="233.2656"/><text fill="#000000" font-family="sans-serif" font-size="14" font-weight="bold" lengthAdjust="spacing" textLength="69" x="15" y="248.2607">gerencia</text><text fill="#000000" font-family="sans-serif" font-size="14" lengthAdjust="spacing" textLength="233" x="269" y="248.2607">Gerencia de Água e Saneamento</text><line style="stroke:#000000;stroke-width:1.0;" x1="264" x2="264" y1="233.2656" y2="253.5625"/><line style="stroke:#000000;stroke-width:1.0;" x1="10" x2="507" y1="253.5625" y2="253.5625"/><text fill="#000000" font-family="sans-serif" font-size="14" font-weight="bold" lengthAdjust="spacing" textLength="120" x="15" y="268.5576">documentacao</text><text fill="#000000" font-family="sans-serif" font-size="14" lengthAdjust="spacing" textLength="12" x="269" y="268.5576">   </text><line style="stroke:#000000;stroke-width:1.0;" x1="264" x2="264" y1="253.5625" y2="273.8594"/><line style="stroke:#000000;stroke-width:1.0;" x1="10" x2="507" y1="273.8594" y2="273.8594"/><text fill="#000000" font-family="sans-serif" font-size="14" font-weight="bold" lengthAdjust="spacing" textLength="244" x="15" y="288.8545">encarregado_tecnico_empresa</text><text fill="#000000" font-family="sans-serif" font-size="14" lengthAdjust="spacing" textLength="88" x="269" y="288.8545">João da Silva</text><line style="stroke:#000000;stroke-width:1.0;" x1="264" x2="264" y1="273.8594" y2="294.1563"/><line style="stroke:#000000;stroke-width:1.0;" x1="10" x2="507" y1="294.1563" y2="294.1563"/><text fill="#000000" font-family="sans-serif" font-size="14" font-weight="bold" lengthAdjust="spacing" textLength="148" x="15" y="309.1514">tecnicos_cooperar</text><text fill="#000000" font-family="sans-serif" font-size="14" lengthAdjust="spacing" textLength="12" x="269" y="309.1514">   </text><line style="stroke:#000000;stroke-width:1.0;" x1="264" x2="264" y1="294.1563" y2="314.4531"/><line style="stroke:#000000;stroke-width:1.0;" x1="10" x2="507" y1="314.4531" y2="314.4531"/><text fill="#000000" font-family="sans-serif" font-size="14" font-weight="bold" lengthAdjust="spacing" textLength="190" x="15" y="329.4482">artefatos_documentais</text><text fill="#000000" font-family="sans-serif" font-size="14" lengthAdjust="spacing" textLength="12" x="269" y="329.4482">   </text><line style="stroke:#000000;stroke-width:1.0;" x1="264" x2="264" y1="314.4531" y2="334.75"/><rect fill="none" height="324.75" rx="5" ry="5" style="stroke:#000000;stroke-width:1.5;" width="497" x="10" y="10"/><rect fill="#F1F1F1" height="40.5938" rx="5" ry="5" style="stroke:#F1F1F1;stroke-width:1.5;" width="221" x="544" y="141"/><text fill="#000000" font-family="sans-serif" font-size="14" font-weight="bold" lengthAdjust="spacing" textLength="79" x="549" y="155.9951">municipio</text><text fill="#000000" font-family="sans-serif" font-size="14" lengthAdjust="spacing" textLength="82" x="657" y="155.9951">Município A</text><line style="stroke:#000000;stroke-width:1.0;" x1="652" x2="652" y1="141" y2="161.2969"/><line style="stroke:#000000;stroke-width:1.0;" x1="544" x2="765" y1="161.2969" y2="161.2969"/><text fill="#000000" font-family="sans-serif" font-size="14" font-weight="bold" lengthAdjust="spacing" textLength="98" x="549" y="176.292">comunidade</text><text fill="#000000" font-family="sans-serif" font-size="14" lengthAdjust="spacing" textLength="103" x="657" y="176.292">Comunidade B</text><line style="stroke:#000000;stroke-width:1.0;" x1="652" x2="652" y1="161.2969" y2="181.5938"/><rect fill="none" height="40.5938" rx="5" ry="5" style="stroke:#000000;stroke-width:1.5;" width="221" x="544" y="141"/><rect fill="#F1F1F1" height="40.5938" rx="5" ry="5" style="stroke:#F1F1F1;stroke-width:1.5;" width="104" x="602.5" y="225"/><text fill="#000000" font-family="sans-serif" font-size="14" font-weight="bold" lengthAdjust="spacing" textLength="72" x="607.5" y="239.9951">contrato</text><text fill="#000000" font-family="sans-serif" font-size="14" lengthAdjust="spacing" textLength="12" x="689.5" y="239.9951">   </text><line style="stroke:#000000;stroke-width:1.0;" x1="684.5" x2="684.5" y1="225" y2="245.2969"/><line style="stroke:#000000;stroke-width:1.0;" x1="602.5" x2="706.5" y1="245.2969" y2="245.2969"/><text fill="#000000" font-family="sans-serif" font-size="14" font-weight="bold" lengthAdjust="spacing" textLength="71" x="607.5" y="260.292">licitacao</text><text fill="#000000" font-family="sans-serif" font-size="14" lengthAdjust="spacing" textLength="12" x="689.5" y="260.292">   </text><line style="stroke:#000000;stroke-width:1.0;" x1="684.5" x2="684.5" y1="245.2969" y2="265.5938"/><rect fill="none" height="40.5938" rx="5" ry="5" style="stroke:#000000;stroke-width:1.5;" width="104" x="602.5" y="225"/><rect fill="#F1F1F1" height="81.1875" rx="5" ry="5" style="stroke:#F1F1F1;stroke-width:1.5;" width="234" x="942" y="131"/><text fill="#000000" font-family="sans-serif" font-size="14" font-weight="bold" lengthAdjust="spacing" textLength="61" x="947" y="145.9951">numero</text><text fill="#000000" font-family="sans-serif" font-size="14" lengthAdjust="spacing" textLength="81" x="1090" y="145.9951">12345/2022</text><line style="stroke:#000000;stroke-width:1.0;" x1="1085" x2="1085" y1="131" y2="151.2969"/><line style="stroke:#000000;stroke-width:1.0;" x1="942" x2="1176" y1="151.2969" y2="151.2969"/><text fill="#000000" font-family="sans-serif" font-size="14" font-weight="bold" lengthAdjust="spacing" textLength="133" x="947" y="166.292">data_assinatura</text><text fill="#000000" font-family="sans-serif" font-size="14" lengthAdjust="spacing" textLength="81" x="1090" y="166.292">2022-01-01</text><line style="stroke:#000000;stroke-width:1.0;" x1="1085" x2="1085" y1="151.2969" y2="171.5938"/><line style="stroke:#000000;stroke-width:1.0;" x1="942" x2="1176" y1="171.5938" y2="171.5938"/><text fill="#000000" font-family="sans-serif" font-size="14" font-weight="bold" lengthAdjust="spacing" textLength="128" x="947" y="186.5889">prazo_execucao</text><text fill="#000000" font-family="sans-serif" font-size="14" lengthAdjust="spacing" textLength="67" x="1090" y="186.5889">12 meses</text><line style="stroke:#000000;stroke-width:1.0;" x1="1085" x2="1085" y1="171.5938" y2="191.8906"/><line style="stroke:#000000;stroke-width:1.0;" x1="942" x2="1176" y1="191.8906" y2="191.8906"/><text fill="#000000" font-family="sans-serif" font-size="14" font-weight="bold" lengthAdjust="spacing" textLength="41" x="947" y="206.8857">valor</text><text fill="#000000" font-family="sans-serif" font-size="14" lengthAdjust="spacing" textLength="68" x="1090" y="206.8857">10000.00</text><line style="stroke:#000000;stroke-width:1.0;" x1="1085" x2="1085" y1="191.8906" y2="212.1875"/><rect fill="none" height="81.1875" rx="5" ry="5" style="stroke:#000000;stroke-width:1.5;" width="234" x="942" y="131"/><rect fill="#F1F1F1" height="60.8906" rx="5" ry="5" style="stroke:#F1F1F1;stroke-width:1.5;" width="261" x="928.5" y="230"/><text fill="#000000" font-family="sans-serif" font-size="14" font-weight="bold" lengthAdjust="spacing" textLength="61" x="933.5" y="244.9951">numero</text><text fill="#000000" font-family="sans-serif" font-size="14" lengthAdjust="spacing" textLength="82" x="1102.5" y="244.9951">54321/2021</text><line style="stroke:#000000;stroke-width:1.0;" x1="1097.5" x2="1097.5" y1="230" y2="250.2969"/><line style="stroke:#000000;stroke-width:1.0;" x1="928.5" x2="1189.5" y1="250.2969" y2="250.2969"/><text fill="#000000" font-family="sans-serif" font-size="14" font-weight="bold" lengthAdjust="spacing" textLength="116" x="933.5" y="265.292">data_abertura</text><text fill="#000000" font-family="sans-serif" font-size="14" lengthAdjust="spacing" textLength="81" x="1102.5" y="265.292">2021-12-31</text><line style="stroke:#000000;stroke-width:1.0;" x1="1097.5" x2="1097.5" y1="250.2969" y2="270.5938"/><line style="stroke:#000000;stroke-width:1.0;" x1="928.5" x2="1189.5" y1="270.5938" y2="270.5938"/><text fill="#000000" font-family="sans-serif" font-size="14" font-weight="bold" lengthAdjust="spacing" textLength="159" x="933.5" y="285.5889">empresa_vencedora</text><text fill="#000000" font-family="sans-serif" font-size="14" lengthAdjust="spacing" textLength="77" x="1102.5" y="285.5889">Empresa X</text><line style="stroke:#000000;stroke-width:1.0;" x1="1097.5" x2="1097.5" y1="270.5938" y2="290.8906"/><rect fill="none" height="60.8906" rx="5" ry="5" style="stroke:#000000;stroke-width:1.5;" width="261" x="928.5" y="230"/><rect fill="#F1F1F1" height="40.5938" rx="5" ry="5" style="stroke:#F1F1F1;stroke-width:1.5;" width="123" x="593" y="284"/><text fill="#000000" font-family="sans-serif" font-size="14" lengthAdjust="spacing" textLength="113" x="598" y="298.9951">Maria Rodrigues</text><line style="stroke:#000000;stroke-width:1.0;" x1="593" x2="716" y1="304.2969" y2="304.2969"/><text fill="#000000" font-family="sans-serif" font-size="14" lengthAdjust="spacing" textLength="75" x="598" y="319.292">José Souza</text><rect fill="none" height="40.5938" rx="5" ry="5" style="stroke:#000000;stroke-width:1.5;" width="123" x="593" y="284"/><rect fill="#F1F1F1" height="40.5938" rx="5" ry="5" style="stroke:#F1F1F1;stroke-width:1.5;" width="22" x="642.5" y="343"/><text fill="#000000" font-family="sans-serif" font-size="14" lengthAdjust="spacing" textLength="12" x="647.5" y="357.9951">   </text><line style="stroke:#000000;stroke-width:1.0;" x1="642.5" x2="664.5" y1="363.2969" y2="363.2969"/><text fill="#000000" font-family="sans-serif" font-size="14" lengthAdjust="spacing" textLength="12" x="647.5" y="378.292">   </text><rect fill="none" height="40.5938" rx="5" ry="5" style="stroke:#000000;stroke-width:1.5;" width="22" x="642.5" y="343"/><rect fill="#F1F1F1" height="60.8906" rx="5" ry="5" style="stroke:#F1F1F1;stroke-width:1.5;" width="514" x="802" y="313"/><text fill="#000000" font-family="sans-serif" font-size="14" font-weight="bold" lengthAdjust="spacing" textLength="44" x="807" y="327.9951">nome</text><text fill="#000000" font-family="sans-serif" font-size="14" lengthAdjust="spacing" textLength="128" x="861" y="327.9951">Plano de Trabalho</text><line style="stroke:#000000;stroke-width:1.0;" x1="856" x2="856" y1="313" y2="333.2969"/><line style="stroke:#000000;stroke-width:1.0;" x1="802" x2="1316" y1="333.2969" y2="333.2969"/><text fill="#000000" font-family="sans-serif" font-size="14" font-weight="bold" lengthAdjust="spacing" textLength="33" x="807" y="348.292">tipo</text><text fill="#000000" font-family="sans-serif" font-size="14" lengthAdjust="spacing" textLength="28" x="861" y="348.292">PDF</text><line style="stroke:#000000;stroke-width:1.0;" x1="856" x2="856" y1="333.2969" y2="353.5938"/><line style="stroke:#000000;stroke-width:1.0;" x1="802" x2="1316" y1="353.5938" y2="353.5938"/><text fill="#000000" font-family="sans-serif" font-size="14" font-weight="bold" lengthAdjust="spacing" textLength="22" x="807" y="368.5889">url</text><text fill="#000000" font-family="sans-serif" font-size="14" lengthAdjust="spacing" textLength="450" x="861" y="368.5889">https://example.com/obras/1/artefatos/plano-de-trabalho.pdf</text><line style="stroke:#000000;stroke-width:1.0;" x1="856" x2="856" y1="353.5938" y2="373.8906"/><rect fill="none" height="60.8906" rx="5" ry="5" style="stroke:#000000;stroke-width:1.5;" width="514" x="802" y="313"/><rect fill="#F1F1F1" height="60.8906" rx="5" ry="5" style="stroke:#F1F1F1;stroke-width:1.5;" width="451" x="833.5" y="392"/><text fill="#000000" font-family="sans-serif" font-size="14" font-weight="bold" lengthAdjust="spacing" textLength="44" x="838.5" y="406.9951">nome</text><text fill="#000000" font-family="sans-serif" font-size="14" lengthAdjust="spacing" textLength="93" x="892.5" y="406.9951">Foto da Obra</text><line style="stroke:#000000;stroke-width:1.0;" x1="887.5" x2="887.5" y1="392" y2="412.2969"/><line style="stroke:#000000;stroke-width:1.0;" x1="833.5" x2="1284.5" y1="412.2969" y2="412.2969"/><text fill="#000000" font-family="sans-serif" font-size="14" font-weight="bold" lengthAdjust="spacing" textLength="33" x="838.5" y="427.292">tipo</text><text fill="#000000" font-family="sans-serif" font-size="14" lengthAdjust="spacing" textLength="24" x="892.5" y="427.292">JPG</text><line style="stroke:#000000;stroke-width:1.0;" x1="887.5" x2="887.5" y1="412.2969" y2="432.5938"/><line style="stroke:#000000;stroke-width:1.0;" x1="833.5" x2="1284.5" y1="432.5938" y2="432.5938"/><text fill="#000000" font-family="sans-serif" font-size="14" font-weight="bold" lengthAdjust="spacing" textLength="22" x="838.5" y="447.5889">url</text><text fill="#000000" font-family="sans-serif" font-size="14" lengthAdjust="spacing" textLength="387" x="892.5" y="447.5889">https://example.com/obras/1/artefatos/foto-obra.jpg</text><line style="stroke:#000000;stroke-width:1.0;" x1="887.5" x2="887.5" y1="432.5938" y2="452.8906"/><rect fill="none" height="60.8906" rx="5" ry="5" style="stroke:#000000;stroke-width:1.5;" width="451" x="833.5" y="392"/><path d="M495,161.5 L508,161.5 C517.3003,161.5 526.9337,161.5 536.6139,161.5 " fill="none" style="stroke:#000000;stroke-width:1.0;stroke-dasharray:3.0,3.0;"/><path d="M536.6139,164.6071 L538.9443,161.5 L536.6139,158.3929 L544.3817,161.5 L536.6139,164.6071 " fill="#000000" style="stroke:#000000;stroke-width:1.0;"/><ellipse cx="495" cy="161.5" fill="#000000" rx="3" ry="3" style="stroke:#000000;stroke-width:1.0;"/><path d="M695,234.5 L708,234.5 C730.7615,234.5 843.3179,213.6531 934.8297,195.9433 " fill="none" style="stroke:#000000;stroke-width:1.0;stroke-dasharray:3.0,3.0;"/><path d="M935.4023,198.8978 L937.0456,195.5139 L934.2572,192.9888 L942.216,194.5119 L935.4023,198.8978 " fill="#000000" style="stroke:#000000;stroke-width:1.0;"/><ellipse cx="695" cy="234.5" fill="#000000" rx="3" ry="3" style="stroke:#000000;stroke-width:1.0;"/><path d="M695,255.5 L708,255.5 C778.1756,255.5 856.2464,256.5145 920.8615,257.6295 " fill="none" style="stroke:#000000;stroke-width:1.0;stroke-dasharray:3.0,3.0;"/><path d="M920.8069,260.7542 L923.205,257.6704 L920.9161,254.5048 L928.6733,257.7659 L920.8069,260.7542 " fill="#000000" style="stroke:#000000;stroke-width:1.0;"/><ellipse cx="695" cy="255.5" fill="#000000" rx="3" ry="3" style="stroke:#000000;stroke-width:1.0;"/><path d="M495,263.5 L508,263.5 C536.8233,263.5 568.6085,260.0016 595.1421,256.0894 " fill="none" style="stroke:#000000;stroke-width:1.0;stroke-dasharray:3.0,3.0;"/><path d="M595.6092,259.1679 L597.451,255.7391 L594.675,253.0109 L602.8383,254.9217 L595.6092,259.1679 " fill="#000000" style="stroke:#000000;stroke-width:1.0;"/><ellipse cx="495" cy="263.5" fill="#000000" rx="3" ry="3" style="stroke:#000000;stroke-width:1.0;"/><path d="M495,304.5 L508,304.5 C533.2735,304.5 561.0078,304.5 585.4521,304.5 " fill="none" style="stroke:#000000;stroke-width:1.0;stroke-dasharray:3.0,3.0;"/><path d="M585.4521,307.6254 L587.7962,304.5 L585.4521,301.3746 L593.2657,304.5 L585.4521,307.6254 " fill="#000000" style="stroke:#000000;stroke-width:1.0;"/><ellipse cx="495" cy="304.5" fill="#000000" rx="3" ry="3" style="stroke:#000000;stroke-width:1.0;"/><path d="M655,352.5 L668,352.5 C708.9422,352.5 752.2926,351.9994 794.638,351.2344 " fill="none" style="stroke:#000000;stroke-width:1.0;stroke-dasharray:3.0,3.0;"/><path d="M794.6942,354.2807 L796.9227,351.1922 L794.5817,348.188 L802.2538,351.0938 L794.6942,354.2807 " fill="#000000" style="stroke:#000000;stroke-width:1.0;"/><ellipse cx="655" cy="352.5" fill="#000000" rx="3" ry="3" style="stroke:#000000;stroke-width:1.0;"/><path d="M655,373.5 L668,373.5 C703.2285,373.5 773.4355,381.4503 844.7263,390.946 " fill="none" style="stroke:#000000;stroke-width:1.0;stroke-dasharray:3.0,3.0;"/><path d="M844.3088,394.0643 L847.065,391.2592 L845.1438,387.8278 L852.5219,391.9899 L844.3088,394.0643 " fill="#000000" style="stroke:#000000;stroke-width:1.0;"/><ellipse cx="655" cy="373.5" fill="#000000" rx="3" ry="3" style="stroke:#000000;stroke-width:1.0;"/><path d="M495,324.5 L508,324.5 C524.6058,324.5 527.9711,330.1611 544,334.5 C576.0895,343.1864 613.5375,352.9878 635.4235,358.6822 " fill="none" style="stroke:#000000;stroke-width:1.0;stroke-dasharray:3.0,3.0;"/><path d="M634.6625,361.6104 L637.6196,359.253 L636.1845,355.7541 L642.7439,360.5847 L634.6625,361.6104 " fill="#000000" style="stroke:#000000;stroke-width:1.0;"/><ellipse cx="495" cy="324.5" fill="#000000" rx="3" ry="3" style="stroke:#000000;stroke-width:1.0;"/><!--SRC=[bLFDRjf04BxxALO-9LB1c01DEQNvhH2eg2HHfIf2WpquczexrkxQJLFbq6VfgOS-1I_M6KC0jRtKmiBppSytyytkYVDW_OCZ4tmBGfs6GnM_2i856bpgH8FLD5-ZtIF6mJbYD84DskiF64sqysWDhB7NnsyOIy6pRRW6CHPsEzrkgnFpBtnnbXPhJeGvvnRQxCBYRkke2QiX9_iI9_wumq-xqs4VcXGj9e9ouqKbJEMQQoB6wXTRwgsKIKZSAQGethEjfKx3uBdn6s-X8GXvp5u_aZOa4micTo2EY_Md-YXuJhwfDUP_KKQmZDinh8tWLvjlnIIhxra52jKC34A1Xdb40KegCKJAzGXxNR1bs6l_qL6Z76z16_2LXR-bBIqyqHmVCQdMfRc0Aj2Xsogw9sGpVyxIxJMoe-xtZhgnKE-M1WkqUyJnRbaRhUOrJuufsJzK2vuRBdQ2jPX1IhptX1V5pUvK7j7g1waKr4pdDKZPJP2R9qGbMf3kFuKJFfYWFb1gTLR9Q9BgLZ_LZAed2E_ag5gFIzRJpRTQQoV9Sj0D5Sq2fpaOaYrTMrX0Vj_inkko6NzwVYbcPNEnxhqltJ2Ay16ACiSsdwg85XPS54TRhgYKWgqKMtvJi5sco-QOxR5Uac-6VC_f-uIZwTL_4owvLalWzaEPYSft_9xmxMZkT203-fl9MDLedIQZuhQSbtRSNw27mS6D-MpeYr5SlDGvAgyBF0mEhgPZvQYo2QgKxvxLYyfpzc4mWffrhup43PLO1zUJGpMxU07LXQcr9IE21wFRoJf8lIC_AyatmODUwrHxDKFBJQdRIN3EirIvvzI4KcsoeRgvlcmT1sCmV7So9a8Jd14JsA_ic_q6]--></g></svg>