<?xml version="1.0" encoding="UTF-8" standalone="no"?><svg xmlns="http://www.w3.org/2000/svg" xmlns:xlink="http://www.w3.org/1999/xlink" contentStyleType="text/css" height="506px" preserveAspectRatio="none" style="width:1105px;height:506px;background:#FFFFFF;" version="1.1" viewBox="0 0 1105 506" width="1105px" zoomAndPan="magnify"><defs/><g><rect fill="#F1F1F1" height="263.8594" rx="5" ry="5" style="stroke:#F1F1F1;stroke-width:1.5;" width="323" x="10" y="55.5"/><text fill="#000000" font-family="sans-serif" font-size="14" font-weight="bold" lengthAdjust="spacing" textLength="15" x="15" y="70.4951">id</text><text fill="#000000" font-family="sans-serif" font-size="14" lengthAdjust="spacing" textLength="26" x="219" y="70.4951">123</text><line style="stroke:#000000;stroke-width:1.0;" x1="214" x2="214" y1="55.5" y2="75.7969"/><line style="stroke:#000000;stroke-width:1.0;" x1="10" x2="333" y1="75.7969" y2="75.7969"/><text fill="#000000" font-family="sans-serif" font-size="14" font-weight="bold" lengthAdjust="spacing" textLength="81" x="15" y="90.792">progresso</text><text fill="#000000" font-family="sans-serif" font-size="14" lengthAdjust="spacing" textLength="18" x="219" y="90.792">75</text><line style="stroke:#000000;stroke-width:1.0;" x1="214" x2="214" y1="75.7969" y2="96.0938"/><line style="stroke:#000000;stroke-width:1.0;" x1="10" x2="333" y1="96.0938" y2="96.0938"/><text fill="#000000" font-family="sans-serif" font-size="14" font-weight="bold" lengthAdjust="spacing" textLength="183" x="15" y="111.0889">data_prevista_termino</text><text fill="#000000" font-family="sans-serif" font-size="14" lengthAdjust="spacing" textLength="80" x="219" y="111.0889">2022-12-31</text><line style="stroke:#000000;stroke-width:1.0;" x1="214" x2="214" y1="96.0938" y2="116.3906"/><line style="stroke:#000000;stroke-width:1.0;" x1="10" x2="333" y1="116.3906" y2="116.3906"/><text fill="#000000" font-family="sans-serif" font-size="14" font-weight="bold" lengthAdjust="spacing" textLength="120" x="15" y="131.3857">dias_restantes</text><text fill="#000000" font-family="sans-serif" font-size="14" lengthAdjust="spacing" textLength="18" x="219" y="131.3857">60</text><line style="stroke:#000000;stroke-width:1.0;" x1="214" x2="214" y1="116.3906" y2="136.6875"/><line style="stroke:#000000;stroke-width:1.0;" x1="10" x2="333" y1="136.6875" y2="136.6875"/><text fill="#000000" font-family="sans-serif" font-size="14" font-weight="bold" lengthAdjust="spacing" textLength="85" x="15" y="151.6826">fase_atual</text><text fill="#000000" font-family="sans-serif" font-size="14" lengthAdjust="spacing" textLength="73" x="219" y="151.6826">escavação</text><line style="stroke:#000000;stroke-width:1.0;" x1="214" x2="214" y1="136.6875" y2="156.9844"/><line style="stroke:#000000;stroke-width:1.0;" x1="10" x2="333" y1="156.9844" y2="156.9844"/><text fill="#000000" font-family="sans-serif" font-size="14" font-weight="bold" lengthAdjust="spacing" textLength="138" x="15" y="171.9795">fases_concluidas</text><text fill="#000000" font-family="sans-serif" font-size="14" lengthAdjust="spacing" textLength="12" x="219" y="171.9795">   </text><line style="stroke:#000000;stroke-width:1.0;" x1="214" x2="214" y1="156.9844" y2="177.2813"/><line style="stroke:#000000;stroke-width:1.0;" x1="10" x2="333" y1="177.2813" y2="177.2813"/><text fill="#000000" font-family="sans-serif" font-size="14" font-weight="bold" lengthAdjust="spacing" textLength="135" x="15" y="192.2764">fases_pendentes</text><text fill="#000000" font-family="sans-serif" font-size="14" lengthAdjust="spacing" textLength="12" x="219" y="192.2764">   </text><line style="stroke:#000000;stroke-width:1.0;" x1="214" x2="214" y1="177.2813" y2="197.5781"/><line style="stroke:#000000;stroke-width:1.0;" x1="10" x2="333" y1="197.5781" y2="197.5781"/><text fill="#000000" font-family="sans-serif" font-size="14" font-weight="bold" lengthAdjust="spacing" textLength="194" x="15" y="212.5732">problemas_encontrados</text><text fill="#000000" font-family="sans-serif" font-size="14" lengthAdjust="spacing" textLength="12" x="219" y="212.5732">   </text><line style="stroke:#000000;stroke-width:1.0;" x1="214" x2="214" y1="197.5781" y2="217.875"/><line style="stroke:#000000;stroke-width:1.0;" x1="10" x2="333" y1="217.875" y2="217.875"/><text fill="#000000" font-family="sans-serif" font-size="14" font-weight="bold" lengthAdjust="spacing" textLength="104" x="15" y="232.8701">status_atual</text><text fill="#000000" font-family="sans-serif" font-size="14" lengthAdjust="spacing" textLength="109" x="219" y="232.8701">em andamento</text><line style="stroke:#000000;stroke-width:1.0;" x1="214" x2="214" y1="217.875" y2="238.1719"/><line style="stroke:#000000;stroke-width:1.0;" x1="10" x2="333" y1="238.1719" y2="238.1719"/><text fill="#000000" font-family="sans-serif" font-size="14" font-weight="bold" lengthAdjust="spacing" textLength="185" x="15" y="253.167">tipos_status_possiveis</text><text fill="#000000" font-family="sans-serif" font-size="14" lengthAdjust="spacing" textLength="12" x="219" y="253.167">   </text><line style="stroke:#000000;stroke-width:1.0;" x1="214" x2="214" y1="238.1719" y2="258.4688"/><line style="stroke:#000000;stroke-width:1.0;" x1="10" x2="333" y1="258.4688" y2="258.4688"/><text fill="#000000" font-family="sans-serif" font-size="14" font-weight="bold" lengthAdjust="spacing" textLength="110" x="15" y="273.4639">visitas_feitas</text><text fill="#000000" font-family="sans-serif" font-size="14" lengthAdjust="spacing" textLength="9" x="219" y="273.4639">3</text><line style="stroke:#000000;stroke-width:1.0;" x1="214" x2="214" y1="258.4688" y2="278.7656"/><line style="stroke:#000000;stroke-width:1.0;" x1="10" x2="333" y1="278.7656" y2="278.7656"/><text fill="#000000" font-family="sans-serif" font-size="14" font-weight="bold" lengthAdjust="spacing" textLength="100" x="15" y="293.7607">data_visitas</text><text fill="#000000" font-family="sans-serif" font-size="14" lengthAdjust="spacing" textLength="12" x="219" y="293.7607">   </text><line style="stroke:#000000;stroke-width:1.0;" x1="214" x2="214" y1="278.7656" y2="299.0625"/><line style="stroke:#000000;stroke-width:1.0;" x1="10" x2="333" y1="299.0625" y2="299.0625"/><text fill="#000000" font-family="sans-serif" font-size="14" font-weight="bold" lengthAdjust="spacing" textLength="70" x="15" y="314.0576">arquivos</text><text fill="#000000" font-family="sans-serif" font-size="14" lengthAdjust="spacing" textLength="12" x="219" y="314.0576">   </text><line style="stroke:#000000;stroke-width:1.0;" x1="214" x2="214" y1="299.0625" y2="319.3594"/><rect fill="none" height="263.8594" rx="5" ry="5" style="stroke:#000000;stroke-width:1.5;" width="323" x="10" y="55.5"/><rect fill="#F1F1F1" height="60.8906" rx="5" ry="5" style="stroke:#F1F1F1;stroke-width:1.5;" width="112" x="434.5" y="10"/><text fill="#000000" font-family="sans-serif" font-size="14" lengthAdjust="spacing" textLength="54" x="439.5" y="24.9951">projeto</text><line style="stroke:#000000;stroke-width:1.0;" x1="434.5" x2="546.5" y1="30.2969" y2="30.2969"/><text fill="#000000" font-family="sans-serif" font-size="14" lengthAdjust="spacing" textLength="102" x="439.5" y="45.292">licenciamento</text><line style="stroke:#000000;stroke-width:1.0;" x1="434.5" x2="546.5" y1="50.5938" y2="50.5938"/><text fill="#000000" font-family="sans-serif" font-size="14" lengthAdjust="spacing" textLength="73" x="439.5" y="65.5889">escavação</text><rect fill="none" height="60.8906" rx="5" ry="5" style="stroke:#000000;stroke-width:1.5;" width="112" x="434.5" y="10"/><rect fill="#F1F1F1" height="60.8906" rx="5" ry="5" style="stroke:#F1F1F1;stroke-width:1.5;" width="100" x="440.5" y="89"/><text fill="#000000" font-family="sans-serif" font-size="14" lengthAdjust="spacing" textLength="65" x="445.5" y="103.9951">fundação</text><line style="stroke:#000000;stroke-width:1.0;" x1="440.5" x2="540.5" y1="109.2969" y2="109.2969"/><text fill="#000000" font-family="sans-serif" font-size="14" lengthAdjust="spacing" textLength="66" x="445.5" y="124.292">estrutura</text><line style="stroke:#000000;stroke-width:1.0;" x1="440.5" x2="540.5" y1="129.5938" y2="129.5938"/><text fill="#000000" font-family="sans-serif" font-size="14" lengthAdjust="spacing" textLength="90" x="445.5" y="144.5889">acabamento</text><rect fill="none" height="60.8906" rx="5" ry="5" style="stroke:#000000;stroke-width:1.5;" width="100" x="440.5" y="89"/><rect fill="#F1F1F1" height="40.5938" rx="5" ry="5" style="stroke:#F1F1F1;stroke-width:1.5;" width="241" x="370" y="168"/><text fill="#000000" font-family="sans-serif" font-size="14" lengthAdjust="spacing" textLength="222" x="375" y="182.9951">Atraso na entrega de materiais</text><line style="stroke:#000000;stroke-width:1.0;" x1="370" x2="611" y1="188.2969" y2="188.2969"/><text fill="#000000" font-family="sans-serif" font-size="14" lengthAdjust="spacing" textLength="231" x="375" y="203.292">Falta de mão de obra qualificada</text><rect fill="none" height="40.5938" rx="5" ry="5" style="stroke:#000000;stroke-width:1.5;" width="241" x="370" y="168"/><rect fill="#F1F1F1" height="81.1875" rx="5" ry="5" style="stroke:#F1F1F1;stroke-width:1.5;" width="119" x="431" y="227"/><text fill="#000000" font-family="sans-serif" font-size="14" lengthAdjust="spacing" textLength="55" x="436" y="241.9951">iniciado</text><line style="stroke:#000000;stroke-width:1.0;" x1="431" x2="550" y1="247.2969" y2="247.2969"/><text fill="#000000" font-family="sans-serif" font-size="14" lengthAdjust="spacing" textLength="73" x="436" y="262.292">paralisado</text><line style="stroke:#000000;stroke-width:1.0;" x1="431" x2="550" y1="267.5938" y2="267.5938"/><text fill="#000000" font-family="sans-serif" font-size="14" lengthAdjust="spacing" textLength="109" x="436" y="282.5889">em andamento</text><line style="stroke:#000000;stroke-width:1.0;" x1="431" x2="550" y1="287.8906" y2="287.8906"/><text fill="#000000" font-family="sans-serif" font-size="14" lengthAdjust="spacing" textLength="68" x="436" y="302.8857">concluido</text><rect fill="none" height="81.1875" rx="5" ry="5" style="stroke:#000000;stroke-width:1.5;" width="119" x="431" y="227"/><rect fill="#F1F1F1" height="60.8906" rx="5" ry="5" style="stroke:#F1F1F1;stroke-width:1.5;" width="91" x="445" y="326"/><text fill="#000000" font-family="sans-serif" font-size="14" lengthAdjust="spacing" textLength="81" x="450" y="340.9951">2022-01-15</text><line style="stroke:#000000;stroke-width:1.0;" x1="445" x2="536" y1="346.2969" y2="346.2969"/><text fill="#000000" font-family="sans-serif" font-size="14" lengthAdjust="spacing" textLength="81" x="450" y="361.292">2022-03-01</text><line style="stroke:#000000;stroke-width:1.0;" x1="445" x2="536" y1="366.5938" y2="366.5938"/><text fill="#000000" font-family="sans-serif" font-size="14" lengthAdjust="spacing" textLength="80" x="450" y="381.5889">2022-05-20</text><rect fill="none" height="60.8906" rx="5" ry="5" style="stroke:#000000;stroke-width:1.5;" width="91" x="445" y="326"/><rect fill="#F1F1F1" height="40.5938" rx="5" ry="5" style="stroke:#F1F1F1;stroke-width:1.5;" width="22" x="478.5" y="405"/><text fill="#000000" font-family="sans-serif" font-size="14" lengthAdjust="spacing" textLength="12" x="483.5" y="419.9951">   </text><line style="stroke:#000000;stroke-width:1.0;" x1="478.5" x2="500.5" y1="425.2969" y2="425.2969"/><text fill="#000000" font-family="sans-serif" font-size="14" lengthAdjust="spacing" textLength="12" x="483.5" y="440.292">   </text><rect fill="none" height="40.5938" rx="5" ry="5" style="stroke:#000000;stroke-width:1.5;" width="22" x="478.5" y="405"/><rect fill="#F1F1F1" height="60.8906" rx="5" ry="5" style="stroke:#F1F1F1;stroke-width:1.5;" width="428" x="656.5" y="355"/><text fill="#000000" font-family="sans-serif" font-size="14" font-weight="bold" lengthAdjust="spacing" textLength="44" x="661.5" y="369.9951">nome</text><text fill="#000000" font-family="sans-serif" font-size="14" lengthAdjust="spacing" textLength="115" x="715.5" y="369.9951">foto_obra_1.jpg</text><line style="stroke:#000000;stroke-width:1.0;" x1="710.5" x2="710.5" y1="355" y2="375.2969"/><line style="stroke:#000000;stroke-width:1.0;" x1="656.5" x2="1084.5" y1="375.2969" y2="375.2969"/><text fill="#000000" font-family="sans-serif" font-size="14" font-weight="bold" lengthAdjust="spacing" textLength="33" x="661.5" y="390.292">tipo</text><text fill="#000000" font-family="sans-serif" font-size="14" lengthAdjust="spacing" textLength="81" x="715.5" y="390.292">image/jpeg</text><line style="stroke:#000000;stroke-width:1.0;" x1="710.5" x2="710.5" y1="375.2969" y2="395.5938"/><line style="stroke:#000000;stroke-width:1.0;" x1="656.5" x2="1084.5" y1="395.5938" y2="395.5938"/><text fill="#000000" font-family="sans-serif" font-size="14" font-weight="bold" lengthAdjust="spacing" textLength="22" x="661.5" y="410.5889">url</text><text fill="#000000" font-family="sans-serif" font-size="14" lengthAdjust="spacing" textLength="364" x="715.5" y="410.5889">https://meuservidor.com/arquivos/foto_obra_1.jpg</text><line style="stroke:#000000;stroke-width:1.0;" x1="710.5" x2="710.5" y1="395.5938" y2="415.8906"/><rect fill="none" height="60.8906" rx="5" ry="5" style="stroke:#000000;stroke-width:1.5;" width="428" x="656.5" y="355"/><rect fill="#F1F1F1" height="60.8906" rx="5" ry="5" style="stroke:#F1F1F1;stroke-width:1.5;" width="445" x="648" y="434"/><text fill="#000000" font-family="sans-serif" font-size="14" font-weight="bold" lengthAdjust="spacing" textLength="44" x="653" y="448.9951">nome</text><text fill="#000000" font-family="sans-serif" font-size="14" lengthAdjust="spacing" textLength="132" x="707" y="448.9951">video_obra_1.mp4</text><line style="stroke:#000000;stroke-width:1.0;" x1="702" x2="702" y1="434" y2="454.2969"/><line style="stroke:#000000;stroke-width:1.0;" x1="648" x2="1093" y1="454.2969" y2="454.2969"/><text fill="#000000" font-family="sans-serif" font-size="14" font-weight="bold" lengthAdjust="spacing" textLength="33" x="653" y="469.292">tipo</text><text fill="#000000" font-family="sans-serif" font-size="14" lengthAdjust="spacing" textLength="76" x="707" y="469.292">video/mp4</text><line style="stroke:#000000;stroke-width:1.0;" x1="702" x2="702" y1="454.2969" y2="474.5938"/><line style="stroke:#000000;stroke-width:1.0;" x1="648" x2="1093" y1="474.5938" y2="474.5938"/><text fill="#000000" font-family="sans-serif" font-size="14" font-weight="bold" lengthAdjust="spacing" textLength="22" x="653" y="489.5889">url</text><text fill="#000000" font-family="sans-serif" font-size="14" lengthAdjust="spacing" textLength="381" x="707" y="489.5889">https://meuservidor.com/arquivos/video_obra_1.mp4</text><line style="stroke:#000000;stroke-width:1.0;" x1="702" x2="702" y1="474.5938" y2="494.8906"/><rect fill="none" height="60.8906" rx="5" ry="5" style="stroke:#000000;stroke-width:1.5;" width="445" x="648" y="434"/><path d="M321,166.5 L334,166.5 C375.436,166.5 339.6268,108.6853 370,80.5 C385.7702,65.8658 407.0445,56.5742 427.3005,50.6794 " fill="none" style="stroke:#000000;stroke-width:1.0;stroke-dasharray:3.0,3.0;"/><path d="M428.1091,53.6412 L429.5218,50.0729 L426.4918,47.7175 L434.705,48.6577 L428.1091,53.6412 " fill="#000000" style="stroke:#000000;stroke-width:1.0;"/><ellipse cx="321" cy="166.5" fill="#000000" rx="3" ry="3" style="stroke:#000000;stroke-width:1.0;"/><path d="M321,186.5 L334,186.5 C354,186.5 352.2844,168.7821 370,159.5 C389.9234,149.0611 413.1133,140.5722 433.7667,134.1441 " fill="none" style="stroke:#000000;stroke-width:1.0;stroke-dasharray:3.0,3.0;"/><path d="M434.6417,137.0201 L435.9237,133.4878 L432.8917,131.2681 L440.9568,131.9565 L434.6417,137.0201 " fill="#000000" style="stroke:#000000;stroke-width:1.0;"/><ellipse cx="321" cy="186.5" fill="#000000" rx="3" ry="3" style="stroke:#000000;stroke-width:1.0;"/><path d="M321,207.5 L334,207.5 C343.2572,207.5 352.8009,207.1662 362.3925,206.5872 " fill="none" style="stroke:#000000;stroke-width:1.0;stroke-dasharray:3.0,3.0;"/><path d="M362.5986,209.6664 L364.7019,206.4326 L362.1864,203.508 L370.0905,206.0719 L362.5986,209.6664 " fill="#000000" style="stroke:#000000;stroke-width:1.0;"/><ellipse cx="321" cy="207.5" fill="#000000" rx="3" ry="3" style="stroke:#000000;stroke-width:1.0;"/><path d="M321,248.5 L334,248.5 C363.5525,248.5 396.0246,251.9014 423.6551,255.8259 " fill="none" style="stroke:#000000;stroke-width:1.0;stroke-dasharray:3.0,3.0;"/><path d="M423.2077,258.8893 L425.9526,256.1615 L424.1024,252.7626 L431.3134,256.9443 L423.2077,258.8893 " fill="#000000" style="stroke:#000000;stroke-width:1.0;"/><ellipse cx="321" cy="248.5" fill="#000000" rx="3" ry="3" style="stroke:#000000;stroke-width:1.0;"/><path d="M321,288.5 L334,288.5 C354.5456,288.5 351.932,307.7189 370,317.5 C391.2021,328.9777 416.3533,337.7948 438.1393,344.1175 " fill="none" style="stroke:#000000;stroke-width:1.0;stroke-dasharray:3.0,3.0;"/><path d="M437.3197,347.017 L440.3139,344.7322 L438.9588,341.218 L445.388,346.1664 L437.3197,347.017 " fill="#000000" style="stroke:#000000;stroke-width:1.0;"/><ellipse cx="321" cy="288.5" fill="#000000" rx="3" ry="3" style="stroke:#000000;stroke-width:1.0;"/><path d="M491,414.5 L504,414.5 C551.0418,414.5 601.3788,412.0898 649.2012,408.6591 " fill="none" style="stroke:#000000;stroke-width:1.0;stroke-dasharray:3.0,3.0;"/><path d="M649.4249,411.7202 L651.497,408.4913 L648.9776,405.598 L656.854,408.0999 L649.4249,411.7202 " fill="#000000" style="stroke:#000000;stroke-width:1.0;"/><ellipse cx="491" cy="414.5" fill="#000000" rx="3" ry="3" style="stroke:#000000;stroke-width:1.0;"/><path d="M491,435.5 L504,435.5 C548.228,435.5 595.3686,437.6305 640.5938,440.7365 " fill="none" style="stroke:#000000;stroke-width:1.0;stroke-dasharray:3.0,3.0;"/><path d="M640.3827,443.7503 L642.8541,440.8948 L640.8048,437.7228 L648.1282,441.2641 L640.3827,443.7503 " fill="#000000" style="stroke:#000000;stroke-width:1.0;"/><ellipse cx="491" cy="435.5" fill="#000000" rx="3" ry="3" style="stroke:#000000;stroke-width:1.0;"/><path d="M321,309.5 L334,309.5 C375.8463,309.5 338.2051,369.2934 370,396.5 C398.9483,421.2708 445.5542,425.6236 471.3375,425.9706 " fill="none" style="stroke:#000000;stroke-width:1.0;stroke-dasharray:3.0,3.0;"/><path d="M471.3405,429.0069 L473.6148,425.9684 L471.3346,422.9343 L478.9283,425.9633 L471.3405,429.0069 " fill="#000000" style="stroke:#000000;stroke-width:1.0;"/><ellipse cx="321" cy="309.5" fill="#000000" rx="3" ry="3" style="stroke:#000000;stroke-width:1.0;"/><!--SRC=[ZLFBRjj03BphAnO-9K3ya1sxXK_f8saHn41G9xaKXK1Bj4jNsbLskIg285_JGpyaFrQk9DjAqqClbdV86PApopF7O7dhZ8uU8wLwbFNcAXvFJiAXj6PZqJaZs9jf3MN0a9GMAn9YmcWBqY7S6u_6utuyxa_YNfD8u18XCsX69ncpKOslmM42x24FB7GfLF3y-_cNwUt3BacDJdDF6GJYLy6RPhR8JPeSSqfHfmG5wWFObHFaMqUoH9rXsqghkFOwwzIk-MmzUmix059OjINsUjB8AiT2nfC6Z6OBcUcelXF06QL12StY1bI6gW2nYe3SJlW2ScuYKZvypSg2kXTRQ4qfP72e9nQoTntF2WNI-67m7bDfNDBcoLz75LAd9T8aJcNxCKkmKiTra5UQWkqkeJEwt3gn3Bx6y942ayEZQ6E7glMB6CNzUBfJR929W2-HQNyyEXG1U- -fwbZwMFzAH9i2WmDhmoO9XYNnO5jkMh7MY9101Mnmk2sn4_EsTkyxS-dcms61tg6jP3mxI4qnt5KT_YrUyvzE_js9y76VNPIdhrkfCuOlGl_RoIlnffLWL1GzHMVoekl5ZQvpMRBRnPMgq3eoMiM3OEmWdgwGONPqgtzeyrChKIyfHyLKu75qzEdwIZdZROegatMsjF8ixEFeKfP8VV4wvCrLE1tTB8xLydm7gdDTaJKwl9VeycxH9AdFXfUbuJfvTjf_JwoMCXbQTRU8Fk8QVCv2JKr6UZDNjpSN_RVH5UYDb-kQoxv47umKi0yIM_u1]--></g></svg>